<mxfile host="app.diagrams.net" modified="2023-10-11T20:57:25.307Z" agent="Mozilla/5.0 (Windows NT 10.0; Win64; x64) AppleWebKit/537.36 (KHTML, like Gecko) Chrome/104.0.0.0 Safari/537.36" version="22.0.4" etag="0jlj0ydkIMZ0dCsfNkAU" type="github">
  <diagram name="PÃ¡gina-1" id="LxELXPb9f8nEreYDT7U0">
    <mxGraphModel>
      <root>
        <mxCell id="0" />
        <mxCell id="1" parent="0" />
      </root>
    </mxGraphModel>
  </diagram>
</mxfile>
